{"title":"Suffragette 2015 DVDScr XVID AC3 HQ Hive-CM8","uid":13099804,"size":1434329248,"categoryP":"video","categoryS":"movies","magnet":"?xt=urn:btih:008078c4131a7aa4bc126b067e60d54e5ef7fe91&amp;dn=Suffragette+2015+DVDScr+XVID+AC3+HQ+Hive-CM8&amp;tr=udp%3A%2F%2Ftracker.leechers-paradise.org%3A6969&amp;tr=udp%3A%2F%2Fzer0day.ch%3A1337&amp;tr=udp%3A%2F%2Fopen.demonii.com%3A1337&amp;tr=udp%3A%2F%2Ftracker.coppersurfer.tk%3A6969&amp;tr=udp%3A%2F%2Fexodus.desync.com%3A6969","seeders":2,"leechers":2,"uploader":"makintos13","files":3,"time":1451214144,"description":"screens:\r\n \nhttp://imgmak.com/KuL \nhttp://imgmak.com/KuX \nhttp://imgmak.com/K5C \nhttp://imgmak.com/K5K\r\n\r\nThx Hive\r\n\r\nCM8 Doing It Right The First Time\r\n\r\nSource: DVD-Screener Big THX m8\r\n\r\nNotes:\r\n\r\nDVDScreener 14\r\n\r\nEncode:\r\n\r\nquality was nice on this\r\nAll digital watermarks are removed\r\nFixed brightness,contrast and rgb, and added sharpness\r\n\r\ngot very nice\r\nenjoy\r\n\r\nVideo: 720x304 @bitrate 1500 2pass\r\nAudio: English AC3 2.0 Stereo\r\nSample: yes included\r\nps: i forgot to mention, plz support the producers and go to the cinema and watch them on a big screen too\r\nthx\r\n \nhttp://www.imdb.com/title/tt3077214/\r\n\r\nGeneral\r\nComplete name: Suffragette.2015.DVDScr.XVID.AC3.HQ.Hive-CM8.avi\r\nFormat: AVI\r\nFormat/Info: Audio Video Interleave\r\nFile size: 1.32 GiB\r\nDuration: 1h 46mn\r\nOverall bit rate: 1 773 Kbps\r\nWriting application: Nandub v1.0rc2\r\nWriting library: Nandub build 1853/release\r\n\r\nVideo\r\nID: 0\r\nFormat: MPEG-4 Visual\r\nFormat profile: Advanced   \r\nFormat settings, BVOP: 2\r\nFormat settings, QPel: Yes\r\nFormat settings, GMC: No warppoints\r\nFormat settings, Matrix: Default (H.263)\r\nMuxing mode: Packed bitstream\r\nCodec ID: XVID\r\nCodec ID/Hint: XviD\r\nDuration: 1h 46mn\r\nBit rate: 1 505 Kbps\r\nWidth: 720 pixels\r\nHeight: 304 pixels\r\nDisplay aspect ratio: 2.35:1\r\nFrame rate: 29.970 fps\r\nColor space: YUV\r\nChroma subsampling: 4:2:0\r\nBit depth: 8 bits\r\nScan type: Progressive\r\nCompression mode: Lossy\r\nBits/(Pixel*Frame): 0.229\r\nStream size: 1.12 GiB (85%)\r\nWriting library: XviD 1.2.1 (UTC 2008-12-04)\r\n\r\nAudio\r\nID: 1\r\nFormat: AC-3\r\nFormat/Info: Audio Coding 3\r\nMode extension: CM (complete main)\r\nFormat settings, Endianness: Big\r\nCodec ID: 2000\r\nDuration: 1h 46mn\r\nBit rate mode: Constant\r\nBit rate: 256 Kbps\r\nChannel(s): 2 channels\r\nChannel positions: Front: L R\r\nSampling rate: 48.0 KHz\r\nBit depth: 16 bits\r\nCompression mode: Lossy\r\nStream size: 195 MiB (14%)\r\nAlignment: Split accross interleaves\r\nInterleave, duration: 33 ms (1.00 video frame)\r\nInterleave, preload duration: 500 ms","torrent":{"xt":"urn:btih:008078c4131a7aa4bc126b067e60d54e5ef7fe91","amp;dn":"Suffragette+2015+DVDScr+XVID+AC3+HQ+Hive-CM8","amp;tr":["udp%3A%2F%2Ftracker.leechers-paradise.org%3A6969","udp%3A%2F%2Fzer0day.ch%3A1337","udp%3A%2F%2Fopen.demonii.com%3A1337","udp%3A%2F%2Ftracker.coppersurfer.tk%3A6969","udp%3A%2F%2Fexodus.desync.com%3A6969"],"infoHash":"008078c4131a7aa4bc126b067e60d54e5ef7fe91","infoHashBuffer":{"type":"Buffer","data":[0,128,120,196,19,26,122,164,188,18,107,6,126,96,213,78,94,247,254,145]},"announce":[],"urlList":[]}}